<svg xmlns="http://www.w3.org/2000/svg" viewBox="0 0 16 16" id="star"><path fill="#f5e1fd" d="M13.62 7.82a1.21 1.21 0 0 0 .32-1.27 1.22 1.22 0 0 0-1-.84l-2.52-.37a.23.23 0 0 1-.18-.13L9.11 2.92a1.24 1.24 0 0 0-2.22 0L5.76 5.21a.23.23 0 0 1-.18.13l-2.52.37a1.22 1.22 0 0 0-1 .84 1.21 1.21 0 0 0 .32 1.27L4.2 9.59a.29.29 0 0 1 .07.22l-.43 2.51a1.23 1.23 0 0 0 1.79 1.3l2.26-1.18a.22.22 0 0 1 .22 0l2.26 1.18a1.18 1.18 0 0 0 .57.15 1.24 1.24 0 0 0 1.22-1.45l-.43-2.51a.26.26 0 0 1 .07-.21ZM11.1 8.88a1.24 1.24 0 0 0-.35 1.1l.43 2.51a.23.23 0 0 1-.1.23.22.22 0 0 1-.25 0l-2.25-1.17a1.27 1.27 0 0 0-1.16 0l-2.25 1.19a.22.22 0 0 1-.25 0 .23.23 0 0 1-.1-.23L5.25 10a1.24 1.24 0 0 0-.35-1.1L3.07 7.1A.25.25 0 0 1 3 6.86a.24.24 0 0 1 .2-.17l2.52-.36a1.24 1.24 0 0 0 .93-.68l1.14-2.28a.23.23 0 0 1 .42 0l1.13 2.28a1.24 1.24 0 0 0 .93.68l2.52.36a.24.24 0 0 1 .2.17.25.25 0 0 1-.06.24Z" data-name="Layer 2"/></svg>