<?xml version="1.0" encoding="UTF-8" standalone="no"?>
<svg
   width="24"
   height="24"
   version="1.2"
   id="star"
   sodipodi:docname="star.svg"
   inkscape:version="1.3 (0e150ed, 2023-07-21)"
   xmlns:inkscape="http://www.inkscape.org/namespaces/inkscape"
   xmlns:sodipodi="http://sodipodi.sourceforge.net/DTD/sodipodi-0.dtd"
   xmlns="http://www.w3.org/2000/svg"
   xmlns:svg="http://www.w3.org/2000/svg">
  <defs
     id="defs1" />
  <sodipodi:namedview
     id="namedview1"
     pagecolor="#505050"
     bordercolor="#eeeeee"
     borderopacity="1"
     inkscape:showpageshadow="0"
     inkscape:pageopacity="0"
     inkscape:pagecheckerboard="0"
     inkscape:deskcolor="#505050"
     inkscape:zoom="9.8333333"
     inkscape:cx="11.949153"
     inkscape:cy="12"
     inkscape:window-width="1280"
     inkscape:window-height="449"
     inkscape:window-x="0"
     inkscape:window-y="25"
     inkscape:window-maximized="0"
     inkscape:current-layer="star" />
  <path
     d="m 3.1,11.3 3.6,3.3 -1,4.6 c -0.1,0.6 0.1,1.2 0.6,1.5 0.2,0.2 0.5,0.3 0.8,0.3 0.2,0 0.4,0 0.6,-0.1 0,0 0.1,0 0.1,-0.1 l 4.1,-2.3 4.1,2.3 c 0,0 0.1,0 0.1,0.1 0.5,0.2 1.1,0.2 1.5,-0.1 0.5,-0.3 0.7,-0.9 0.6,-1.5 l -1,-4.6 c 0.4,-0.3 1,-0.9 1.6,-1.5 l 1.9,-1.7 0.1,-0.1 C 21.2,11 21.3,10.4 21.1,9.9 20.9,9.4 20.5,9 19.9,8.9 H 19.8 L 15.1,8.4 13.2,4.1 C 13.2,4.1 13.2,4 13.1,4 13,3.3 12.5,3 12,3 c -0.5,0 -1,0.3 -1.3,0.8 0,0 0,0.1 -0.1,0.1 L 8.7,8.2 4,8.7 H 3.9 c -0.5,0.1 -1,0.5 -1.2,1 -0.1,0.6 0,1.2 0.4,1.6 z"
     id="path1"
     style="fill:#4b276c;fill-opacity:1;stroke:none;stroke-opacity:1" />
</svg>
